<svg width="61" height="61" viewBox="0 0 61 61" fill="none" xmlns="http://www.w3.org/2000/svg">
<path fill-rule="evenodd" clip-rule="evenodd" d="M38.0889 35.2995C38.2756 36.8326 37.867 38.2281 36.9089 39.3371C35.6542 40.787 33.4796 41.714 31.0262 41.8812V44.2323C31.0262 44.6832 30.6602 45.0491 30.209 45.0491C29.7581 45.0491 29.3922 44.6832 29.3922 44.2323V41.8719C26.3288 41.5936 23.1841 39.8796 22.3087 36.3689C22.1997 35.9305 22.4652 35.4885 22.9036 35.3787C23.3433 35.2693 23.7839 35.5361 23.8942 35.9736C24.6584 39.0405 27.7316 40.3531 30.4797 40.2815C32.1835 40.2411 34.4434 39.6911 35.6733 38.2696C36.3318 37.508 36.5981 36.5761 36.4674 35.4961C36.1668 33.0175 34.2012 31.6115 30.0974 30.9379C25.5592 30.1923 23.1787 28.2076 23.0249 25.0393C22.8772 22.0155 25.0167 19.4767 28.3486 18.7208C28.6861 18.6444 29.0364 18.5932 29.393 18.5581V16.191C29.393 15.7401 29.7589 15.3751 30.2098 15.3751C30.661 15.3751 31.027 15.7401 31.027 16.191V18.5505C33.5986 18.7794 36.221 20.1538 37.4854 23.1642C37.6601 23.5804 37.4654 24.0588 37.0497 24.2331C36.6322 24.4082 36.1551 24.2126 35.98 23.7969C34.6283 20.5775 31.2643 19.7349 28.711 20.313C26.7583 20.7558 24.5241 22.239 24.6561 24.96C24.7695 27.2854 26.6368 28.7135 30.3623 29.3257C32.1301 29.6151 37.506 30.4987 38.0889 35.2995ZM30.2098 47.9781C40.0073 47.9781 47.9773 40.008 47.9773 30.2117C47.9773 20.4133 40.0072 12.4431 30.2098 12.4431C20.4133 12.4431 12.4424 20.4132 12.4424 30.2106C12.4424 40.008 20.4134 47.9781 30.2098 47.9781ZM30.2098 10.8098C19.512 10.8098 10.809 19.5131 10.809 30.2106C10.809 40.9084 19.5114 49.6114 30.2098 49.6114C40.9082 49.6114 49.6107 40.9081 49.6107 30.2106C49.6107 19.5131 40.9078 10.8098 30.2098 10.8098ZM58.7869 32.5872V27.8338L54.3875 26.1393C54.1252 26.0393 53.934 25.8099 53.8798 25.5351C53.2631 22.3934 52.0413 19.4492 50.2512 16.782C50.0947 16.549 50.0685 16.252 50.1828 15.995L52.0982 11.6827L48.7374 8.3219L44.4229 10.2373C44.1668 10.3507 43.8693 10.3258 43.6368 10.1688C40.9704 8.37795 38.0257 7.1579 34.885 6.54076C34.6102 6.48652 34.3812 6.29488 34.2807 6.03301L32.5872 1.6336H27.8338L26.1389 6.03484C26.0388 6.29716 25.8094 6.48834 25.5347 6.54258C22.3943 7.15882 19.4501 8.37931 16.7828 10.1706C16.5503 10.3271 16.2529 10.3525 15.9968 10.2391L11.6823 8.32372L8.32146 11.6845L10.2382 15.9981C10.3516 16.2542 10.3258 16.5512 10.1697 16.7842C8.37842 19.4506 7.15791 22.3948 6.54123 25.536C6.48699 25.8108 6.29625 26.0397 6.03393 26.1402L1.6336 27.8338V32.5872L6.03302 34.2816C6.29534 34.3817 6.48653 34.6098 6.54076 34.8859C7.15745 38.0271 8.3792 40.9718 10.1693 43.6389C10.3258 43.8715 10.352 44.1689 10.2377 44.4246L8.32236 48.7378L11.6832 52.0986L15.9977 50.1823C16.2538 50.0689 16.5512 50.0947 16.7837 50.2508C19.4501 52.0421 22.3948 53.2626 25.5356 53.8779C25.8103 53.9322 26.0393 54.1238 26.1398 54.3857L27.8347 58.7869H32.5881L34.283 54.3883C34.383 54.126 34.6111 53.9348 34.8872 53.8805C38.0285 53.2639 40.9731 52.0421 43.6395 50.252C43.872 50.0955 44.1695 50.0706 44.4256 50.1836L48.7388 52.0989L52.0996 48.7382L50.1833 44.4237C50.07 44.1676 50.0957 43.8701 50.2518 43.6376C52.0431 40.9712 53.2636 38.0265 53.8789 34.8858C53.9332 34.611 54.1248 34.382 54.3876 34.2815L58.7869 32.5872ZM59.8971 26.5106L55.3909 24.7757C54.7382 21.7341 53.5511 18.8699 51.8567 16.2508L53.8178 11.8339C53.9561 11.5254 53.8876 11.1639 53.6493 10.9251L49.4957 6.77066C49.2561 6.53234 48.8951 6.46477 48.5869 6.60126L44.1689 8.56377C41.5487 6.86931 38.6859 5.68227 35.6451 5.02996L33.9103 0.522416C33.7885 0.208077 33.4848 0 33.1478 0H27.2736C26.9357 0 26.6329 0.207633 26.5106 0.523316L24.7758 5.03086C21.735 5.68267 18.8717 6.87021 16.252 8.56466L11.8339 6.60216C11.5245 6.46478 11.1635 6.53236 10.9252 6.77156L6.77069 10.926C6.53237 11.1652 6.4639 11.5263 6.60217 11.8348L8.56468 16.2521C6.86977 18.8714 5.68181 21.7351 5.03042 24.7758L0.522871 26.5107C0.208087 26.6321 0 26.9349 0 27.2728V33.1474C0 33.4853 0.207632 33.7881 0.522416 33.909L5.02859 35.6439C5.68129 38.6846 6.8684 41.5484 8.56286 44.1685L6.60172 48.5858C6.46345 48.8939 6.53191 49.2558 6.77023 49.4942L10.9247 53.6486C11.163 53.887 11.524 53.9541 11.8335 53.8172L16.2516 51.8546C18.8717 53.5496 21.7346 54.7361 24.7753 55.3889L26.5102 59.8964C26.6315 60.2117 26.9352 60.4189 27.2731 60.4189H33.1473C33.4852 60.4189 33.788 60.2112 33.9094 59.8964L35.6442 55.3903C38.685 54.7376 41.5496 53.5505 44.1689 51.856L48.5862 53.8172C48.8943 53.9541 49.2553 53.887 49.4949 53.6486L53.6485 49.4942C53.8868 49.2558 53.9553 48.8935 53.817 48.5858L51.8554 44.1685C53.5503 41.5484 54.7369 38.6855 55.3897 35.6448L59.8972 33.9099C60.2125 33.789 60.4197 33.4858 60.4197 33.1483V27.2737C60.4205 26.9349 60.2125 26.6321 59.8972 26.5107L59.8971 26.5106Z" fill="#5FC6C1"/>
</svg>
